<svg xmlns="http://www.w3.org/2000/svg" viewBox="0 0 1600 1000" width="1600" height="1000" role="img" aria-label="Python NID extraction feeding the e-KYC verification flow for client onboarding">
  <defs>
    <radialGradient id="warm" cx="50%" cy="42%" r="62%">
      <stop offset="0%" stop-color="#B4441F" stop-opacity="0.08"/>
      <stop offset="55%" stop-color="#B4441F" stop-opacity="0.03"/>
      <stop offset="100%" stop-color="#0E0D0B" stop-opacity="0"/>
    </radialGradient>
    <marker id="ember" markerWidth="9" markerHeight="9" refX="6.5" refY="3.2" orient="auto">
      <path d="M0,0 L6.5,3.2 L0,6.4 Z" fill="#E8582C"/>
    </marker>
    <marker id="ink" markerWidth="9" markerHeight="9" refX="6.5" refY="3.2" orient="auto">
      <path d="M0,0 L6.5,3.2 L0,6.4 Z" fill="#3B372F"/>
    </marker>
  </defs>

  <rect x="0" y="0" width="1600" height="1000" fill="#0E0D0B"/>
  <rect x="0" y="0" width="1600" height="1000" fill="url(#warm)"/>

  <!-- folio / title block -->
  <text x="80" y="88" font-family="ui-monospace, 'JetBrains Mono', Menlo, monospace" font-size="19" letter-spacing="5" fill="#8A8375">BRAC EPL · NID EXTRACTION SERVICE — 03</text>
  <line x1="80" y1="104" x2="520" y2="104" stroke="#2B2822" stroke-width="1"/>
  <text x="80" y="150" font-family="ui-monospace, 'JetBrains Mono', Menlo, monospace" font-size="40" letter-spacing="2" fill="#EDE9E0">e-KYC NID EXTRACTION</text>
  <text x="80" y="182" font-family="ui-monospace, 'JetBrains Mono', Menlo, monospace" font-size="19" letter-spacing="3" fill="#6E685C">PYTHON — THE RIGHT TOOL, BOUNDED BEHIND A PORT</text>

  <!-- caller: spring boot via adapter -> port -->
  <rect x="470" y="270" width="640" height="70" rx="12" fill="none" stroke="#3B372F" stroke-width="1.5" stroke-dasharray="3 8"/>
  <text x="500" y="313" font-family="ui-monospace, 'JetBrains Mono', Menlo, monospace" font-size="19" letter-spacing="2" fill="#8A8375">SPRING BOOT — CALLS THE EXTRACTION PORT VIA AN ADAPTER</text>
  <line x1="600" y1="340" x2="600" y2="400" stroke="#3B372F" stroke-width="2" stroke-dasharray="6 6" marker-end="url(#ink)"/>

  <!-- A: NID document -->
  <text x="100" y="410" font-family="ui-monospace, 'JetBrains Mono', Menlo, monospace" font-size="18" letter-spacing="3" fill="#8A8375">INPUT</text>
  <rect x="100" y="432" width="300" height="196" rx="14" fill="#191713" stroke="#2B2822" stroke-width="1"/>
  <rect x="128" y="466" width="244" height="96" rx="8" fill="#0E0D0B" stroke="#3B372F" stroke-width="1.5"/>
  <rect x="146" y="486" width="58" height="58" rx="4" fill="none" stroke="#3B372F" stroke-width="1.5"/>
  <circle cx="175" cy="506" r="11" fill="none" stroke="#3B372F" stroke-width="1.5"/>
  <path d="M158 540 a17 17 0 0 1 34 0" fill="none" stroke="#3B372F" stroke-width="1.5"/>
  <line x1="222" y1="492" x2="352" y2="492" stroke="#3B372F" stroke-width="1.5"/>
  <line x1="222" y1="512" x2="352" y2="512" stroke="#3B372F" stroke-width="1.5"/>
  <line x1="222" y1="532" x2="320" y2="532" stroke="#3B372F" stroke-width="1.5"/>
  <text x="128" y="602" font-family="ui-monospace, 'JetBrains Mono', Menlo, monospace" font-size="21" letter-spacing="1" fill="#EDE9E0">NID document</text>

  <!-- B: Python extraction service (key node) -->
  <text x="490" y="410" font-family="ui-monospace, 'JetBrains Mono', Menlo, monospace" font-size="18" letter-spacing="3" fill="#E8582C">EXTRACTION SERVICE</text>
  <rect x="490" y="432" width="260" height="196" rx="14" fill="#191713" stroke="#E8582C" stroke-width="1.5"/>
  <text x="514" y="500" font-family="ui-monospace, 'JetBrains Mono', Menlo, monospace" font-size="24" letter-spacing="1" fill="#F2926B">Python</text>
  <line x1="514" y1="520" x2="726" y2="520" stroke="#2B2822" stroke-width="1"/>
  <text x="514" y="556" font-family="ui-monospace, 'JetBrains Mono', Menlo, monospace" font-size="18" letter-spacing="1" fill="#B8B0A0">read the ID image,</text>
  <text x="514" y="582" font-family="ui-monospace, 'JetBrains Mono', Menlo, monospace" font-size="18" letter-spacing="1" fill="#B8B0A0">pull the fields off</text>

  <!-- C: field parsing / validation -->
  <text x="840" y="410" font-family="ui-monospace, 'JetBrains Mono', Menlo, monospace" font-size="18" letter-spacing="3" fill="#8A8375">PARSE &amp; VALIDATE</text>
  <rect x="840" y="432" width="270" height="196" rx="14" fill="#191713" stroke="#2B2822" stroke-width="1"/>
  <text x="864" y="480" font-family="ui-monospace, 'JetBrains Mono', Menlo, monospace" font-size="18" letter-spacing="1" fill="#EDE9E0">Name</text>
  <text x="864" y="512" font-family="ui-monospace, 'JetBrains Mono', Menlo, monospace" font-size="18" letter-spacing="1" fill="#EDE9E0">Date of birth</text>
  <text x="864" y="544" font-family="ui-monospace, 'JetBrains Mono', Menlo, monospace" font-size="18" letter-spacing="1" fill="#EDE9E0">NID number</text>
  <text x="864" y="576" font-family="ui-monospace, 'JetBrains Mono', Menlo, monospace" font-size="18" letter-spacing="1" fill="#EDE9E0">Address</text>
  <path d="M1058 472 l8 8 l14 -16" fill="none" stroke="#E8582C" stroke-width="2"/>
  <path d="M1058 504 l8 8 l14 -16" fill="none" stroke="#E8582C" stroke-width="2"/>
  <path d="M1058 536 l8 8 l14 -16" fill="none" stroke="#E8582C" stroke-width="2"/>
  <path d="M1058 568 l8 8 l14 -16" fill="none" stroke="#E8582C" stroke-width="2"/>

  <!-- D: verification result -->
  <text x="1200" y="410" font-family="ui-monospace, 'JetBrains Mono', Menlo, monospace" font-size="18" letter-spacing="3" fill="#8A8375">RESULT</text>
  <rect x="1200" y="432" width="300" height="196" rx="14" fill="#191713" stroke="#2B2822" stroke-width="1"/>
  <circle cx="1250" cy="500" r="20" fill="none" stroke="#E8582C" stroke-width="2"/>
  <path d="M1240 500 l7 8 l14 -17" fill="none" stroke="#E8582C" stroke-width="2.5"/>
  <text x="1284" y="508" font-family="ui-monospace, 'JetBrains Mono', Menlo, monospace" font-size="21" letter-spacing="1" fill="#EDE9E0">Identity verified</text>
  <line x1="1224" y1="540" x2="1476" y2="540" stroke="#2B2822" stroke-width="1"/>
  <text x="1224" y="580" font-family="ui-monospace, 'JetBrains Mono', Menlo, monospace" font-size="18" letter-spacing="1" fill="#6E685C">client onboarding proceeds</text>

  <!-- flow arrows -->
  <line x1="400" y1="530" x2="490" y2="530" stroke="#E8582C" stroke-width="2.5" marker-end="url(#ember)"/>
  <line x1="750" y1="530" x2="840" y2="530" stroke="#E8582C" stroke-width="2.5" marker-end="url(#ember)"/>
  <line x1="1110" y1="530" x2="1200" y2="530" stroke="#E8582C" stroke-width="2.5" marker-end="url(#ember)"/>

  <!-- caption -->
  <text x="80" y="740" font-family="ui-monospace, 'JetBrains Mono', Menlo, monospace" font-size="18" letter-spacing="1" fill="#6E685C">Image extraction is not business logic — so it lives in Python, called through a port, not forced into the JVM stack.</text>
</svg>
