<svg xmlns="http://www.w3.org/2000/svg" viewBox="0 0 1600 1000" width="1600" height="1000" role="img" aria-label="Scheduled automated email delivery pipeline with retry on failure">
  <defs>
    <radialGradient id="warm" cx="50%" cy="42%" r="62%">
      <stop offset="0%" stop-color="#B4441F" stop-opacity="0.08"/>
      <stop offset="55%" stop-color="#B4441F" stop-opacity="0.03"/>
      <stop offset="100%" stop-color="#0E0D0B" stop-opacity="0"/>
    </radialGradient>
    <marker id="ember" markerWidth="9" markerHeight="9" refX="6.5" refY="3.2" orient="auto">
      <path d="M0,0 L6.5,3.2 L0,6.4 Z" fill="#E8582C"/>
    </marker>
    <marker id="ink" markerWidth="9" markerHeight="9" refX="6.5" refY="3.2" orient="auto">
      <path d="M0,0 L6.5,3.2 L0,6.4 Z" fill="#3B372F"/>
    </marker>
  </defs>

  <rect x="0" y="0" width="1600" height="1000" fill="#0E0D0B"/>
  <rect x="0" y="0" width="1600" height="1000" fill="url(#warm)"/>

  <!-- folio / title block -->
  <text x="80" y="88" font-family="ui-monospace, 'JetBrains Mono', Menlo, monospace" font-size="19" letter-spacing="5" fill="#8A8375">DIGITAL BROKERAGE — 04</text>
  <line x1="80" y1="104" x2="520" y2="104" stroke="#2B2822" stroke-width="1"/>
  <text x="80" y="150" font-family="ui-monospace, 'JetBrains Mono', Menlo, monospace" font-size="40" letter-spacing="2" fill="#EDE9E0">SCHEDULED EMAIL DELIVERY</text>
  <text x="80" y="182" font-family="ui-monospace, 'JetBrains Mono', Menlo, monospace" font-size="19" letter-spacing="3" fill="#6E685C">STATEMENTS GO OUT ON A CADENCE — NO ONE PRESSES SEND</text>

  <!-- A: scheduler / cron -->
  <text x="100" y="410" font-family="ui-monospace, 'JetBrains Mono', Menlo, monospace" font-size="18" letter-spacing="3" fill="#8A8375">TRIGGER</text>
  <rect x="100" y="432" width="210" height="150" rx="14" fill="#191713" stroke="#2B2822" stroke-width="1"/>
  <circle cx="150" cy="490" r="24" fill="none" stroke="#3B372F" stroke-width="1.5"/>
  <path d="M150 490 v-14 M150 490 l11 7" fill="none" stroke="#E8582C" stroke-width="2"/>
  <text x="192" y="484" font-family="ui-monospace, 'JetBrains Mono', Menlo, monospace" font-size="21" letter-spacing="1" fill="#EDE9E0">Cron</text>
  <text x="192" y="510" font-family="ui-monospace, 'JetBrains Mono', Menlo, monospace" font-size="18" letter-spacing="1" fill="#6E685C">scheduler</text>
  <text x="120" y="558" font-family="ui-monospace, 'JetBrains Mono', Menlo, monospace" font-size="18" letter-spacing="1" fill="#6E685C">on a cadence</text>

  <!-- B: job queue -->
  <text x="370" y="410" font-family="ui-monospace, 'JetBrains Mono', Menlo, monospace" font-size="18" letter-spacing="3" fill="#8A8375">ENQUEUE</text>
  <rect x="370" y="432" width="210" height="150" rx="14" fill="#191713" stroke="#2B2822" stroke-width="1"/>
  <rect x="398" y="466" width="154" height="20" rx="4" fill="none" stroke="#3B372F" stroke-width="1.5"/>
  <rect x="398" y="492" width="154" height="20" rx="4" fill="none" stroke="#3B372F" stroke-width="1.5"/>
  <rect x="398" y="518" width="154" height="20" rx="4" fill="none" stroke="#3B372F" stroke-width="1.5"/>
  <text x="390" y="574" font-family="ui-monospace, 'JetBrains Mono', Menlo, monospace" font-size="21" letter-spacing="1" fill="#EDE9E0">Job queue</text>

  <!-- C: compose -->
  <text x="640" y="410" font-family="ui-monospace, 'JetBrains Mono', Menlo, monospace" font-size="18" letter-spacing="3" fill="#8A8375">BUILD</text>
  <rect x="640" y="432" width="210" height="150" rx="14" fill="#191713" stroke="#2B2822" stroke-width="1"/>
  <rect x="668" y="462" width="90" height="60" rx="4" fill="none" stroke="#3B372F" stroke-width="1.5"/>
  <path d="M668 466 l45 34 l45 -34" fill="none" stroke="#3B372F" stroke-width="1.5"/>
  <rect x="766" y="486" width="30" height="38" rx="3" fill="none" stroke="#E8582C" stroke-width="1.5"/>
  <text x="660" y="558" font-family="ui-monospace, 'JetBrains Mono', Menlo, monospace" font-size="21" letter-spacing="1" fill="#EDE9E0">Compose</text>
  <text x="660" y="576" font-family="ui-monospace, 'JetBrains Mono', Menlo, monospace" font-size="16" letter-spacing="1" fill="#6E685C">attach PDF</text>

  <!-- D: SMTP dispatch -->
  <text x="910" y="410" font-family="ui-monospace, 'JetBrains Mono', Menlo, monospace" font-size="18" letter-spacing="3" fill="#E8582C">DISPATCH</text>
  <rect x="910" y="432" width="210" height="150" rx="14" fill="#191713" stroke="#E8582C" stroke-width="1.5"/>
  <path d="M948 470 l32 22 l32 -22" fill="none" stroke="#F2926B" stroke-width="1.5"/>
  <rect x="948" y="470" width="64" height="44" rx="4" fill="none" stroke="#F2926B" stroke-width="1.5"/>
  <text x="930" y="558" font-family="ui-monospace, 'JetBrains Mono', Menlo, monospace" font-size="21" letter-spacing="1" fill="#EDE9E0">SMTP</text>
  <text x="930" y="576" font-family="ui-monospace, 'JetBrains Mono', Menlo, monospace" font-size="16" letter-spacing="1" fill="#6E685C">send to the client</text>

  <!-- E: status / retry -->
  <text x="1180" y="410" font-family="ui-monospace, 'JetBrains Mono', Menlo, monospace" font-size="18" letter-spacing="3" fill="#8A8375">OUTCOME</text>
  <rect x="1180" y="432" width="230" height="150" rx="14" fill="#191713" stroke="#2B2822" stroke-width="1"/>
  <circle cx="1218" cy="484" r="15" fill="none" stroke="#E8582C" stroke-width="2"/>
  <path d="M1211 484 l5 6 l10 -12" fill="none" stroke="#E8582C" stroke-width="2"/>
  <text x="1244" y="491" font-family="ui-monospace, 'JetBrains Mono', Menlo, monospace" font-size="19" letter-spacing="1" fill="#EDE9E0">Sent</text>
  <path d="M1204 528 a14 14 0 1 1 -6 -12" fill="none" stroke="#F2926B" stroke-width="2"/>
  <path d="M1198 512 l0 4 l-6 0" fill="none" stroke="#F2926B" stroke-width="2"/>
  <text x="1244" y="537" font-family="ui-monospace, 'JetBrains Mono', Menlo, monospace" font-size="19" letter-spacing="1" fill="#B8B0A0">Retry on fail</text>

  <!-- flow arrows -->
  <line x1="310" y1="507" x2="370" y2="507" stroke="#3B372F" stroke-width="2" stroke-dasharray="7 6" marker-end="url(#ink)"/>
  <text x="340" y="450" text-anchor="middle" font-family="ui-monospace, 'JetBrains Mono', Menlo, monospace" font-size="14" letter-spacing="1" fill="#6E685C">async</text>
  <line x1="580" y1="507" x2="640" y2="507" stroke="#E8582C" stroke-width="2.5" marker-end="url(#ember)"/>
  <line x1="850" y1="507" x2="910" y2="507" stroke="#E8582C" stroke-width="2.5" marker-end="url(#ember)"/>
  <line x1="1120" y1="507" x2="1180" y2="507" stroke="#E8582C" stroke-width="2.5" marker-end="url(#ember)"/>

  <!-- retry loop: status -> back to queue -->
  <path d="M1295 582 C 1295 760, 475 760, 475 592" fill="none" stroke="#E8582C" stroke-width="2" stroke-dasharray="7 7" marker-end="url(#ember)"/>
  <text x="885" y="748" text-anchor="middle" font-family="ui-monospace, 'JetBrains Mono', Menlo, monospace" font-size="18" letter-spacing="2" fill="#8A8375">ON FAILURE — REQUEUE &amp; RETRY</text>

  <!-- caption -->
  <text x="80" y="880" font-family="ui-monospace, 'JetBrains Mono', Menlo, monospace" font-size="18" letter-spacing="1" fill="#6E685C">A mail adapter behind a port on the hexagonal core — the schedule runs the flow so statements ship without a human in the loop.</text>
</svg>
