<svg xmlns="http://www.w3.org/2000/svg" viewBox="0 0 1600 900" fill="none">
  <defs>
    <linearGradient id="g" x1="0" y1="0" x2="1600" y2="900" gradientUnits="userSpaceOnUse">
      <stop stop-color="#22D3EE"/><stop offset="1" stop-color="#3B82F6"/>
    </linearGradient>
  </defs>
  <rect width="1600" height="900" fill="#0A0A0F"/>
  <g stroke="#1D1D2A" stroke-width="1">
    <line x1="0" y1="0" x2="0" y2="900"/><line x1="110" y1="0" x2="110" y2="900"/><line x1="220" y1="0" x2="220" y2="900"/><line x1="330" y1="0" x2="330" y2="900"/><line x1="440" y1="0" x2="440" y2="900"/><line x1="550" y1="0" x2="550" y2="900"/><line x1="660" y1="0" x2="660" y2="900"/><line x1="770" y1="0" x2="770" y2="900"/><line x1="880" y1="0" x2="880" y2="900"/><line x1="990" y1="0" x2="990" y2="900"/><line x1="1100" y1="0" x2="1100" y2="900"/><line x1="1210" y1="0" x2="1210" y2="900"/><line x1="1320" y1="0" x2="1320" y2="900"/><line x1="1430" y1="0" x2="1430" y2="900"/><line x1="1540" y1="0" x2="1540" y2="900"/>
    <line x1="0" y1="0" x2="1600" y2="0"/><line x1="0" y1="110" x2="1600" y2="110"/><line x1="0" y1="220" x2="1600" y2="220"/><line x1="0" y1="330" x2="1600" y2="330"/><line x1="0" y1="440" x2="1600" y2="440"/><line x1="0" y1="550" x2="1600" y2="550"/><line x1="0" y1="660" x2="1600" y2="660"/><line x1="0" y1="770" x2="1600" y2="770"/><line x1="0" y1="880" x2="1600" y2="880"/>
  </g>
  <rect x="200" y="150" width="1200" height="600" rx="24" fill="#16161F" stroke="#262633" stroke-width="2"/>
  <rect x="200" y="150" width="1200" height="70" rx="24" fill="#1D1D2A"/>
  <rect x="200" y="196" width="1200" height="24" fill="#1D1D2A"/>
  <circle cx="248" cy="185" r="9" fill="#EC4899"/><circle cx="284" cy="185" r="9" fill="#FBBF24"/><circle cx="320" cy="185" r="9" fill="#34D399"/>
  <rect x="420" y="172" width="820" height="26" rx="13" fill="#262633"/>
  <rect x="200" y="220" width="1200" height="530" fill="url(#g)" opacity="0.07"/>
  <rect x="252" y="280" width="360" height="34" rx="8" fill="#262633"/>
  <rect x="252" y="340" width="900" height="18" rx="9" fill="#20202c"/>
  <rect x="252" y="378" width="760" height="18" rx="9" fill="#20202c"/>
  <rect x="252" y="470" width="260" height="180" rx="14" fill="#1D1D2A" stroke="#262633"/>
  <rect x="540" y="470" width="260" height="180" rx="14" fill="#1D1D2A" stroke="#262633"/>
  <rect x="828" y="470" width="260" height="180" rx="14" fill="#1D1D2A" stroke="#262633"/>
  <rect x="1116" y="470" width="232" height="180" rx="14" fill="#1D1D2A" stroke="#262633"/>
  <rect x="690" y="418" width="220" height="64" rx="32" fill="url(#g)" opacity="0.9"/>
  <text x="800" y="459" font-family="monospace" font-size="30" fill="#0A0A0F" text-anchor="middle" font-weight="700">UI preview</text>
</svg>